PathFileType	4	(X/Y/Z)	 D:\Google Drive\Share to the world\OpenSim\ScaleTool\TRC\Walk_Mkrs2.trc
DataRate	CameraRate	NumFrames	NumMarkers	Units	OrigDataRate	OrigDataStartFrame	OrigNumFrames
100	100	11	34	m	100	135	536
Frame#	time	C7			T10			CLAV			STRN			LSHO			LELB			LWRA			LWRB			LFIN			RSHO			RELB			RWRA			RWRB			RFIN			LASI			RASI			LPSI			RPSI			LTHI			LKNE			LTIB			LANK			LHEE			LTOE			RTHI			RKNE			RTIB			RANK			RHEE			RTOE			RPINKY			LPINKY			INRKNE			INLKNE			
		X1	Y1	Z1	X2	Y2	Z2	X3	Y3	Z3	X4	Y4	Z4	X5	Y5	Z5	X6	Y6	Z6	X7	Y7	Z7	X8	Y8	Z8	X9	Y9	Z9	X10	Y10	Z10	X11	Y11	Z11	X12	Y12	Z12	X13	Y13	Z13	X14	Y14	Z14	X15	Y15	Z15	X16	Y16	Z16	X17	Y17	Z17	X18	Y18	Z18	X19	Y19	Z19	X20	Y20	Z20	X21	Y21	Z21	X22	Y22	Z22	X23	Y23	Z23	X24	Y24	Z24	X25	Y25	Z25	X26	Y26	Z26	X27	Y27	Z27	X28	Y28	Z28	X29	Y29	Z29	X30	Y30	Z30	X31	Y31	Z31	X32	Y32	Z32	X33	Y33	Z33	X34	Y34	Z34	

135	1.3400	-2.210440	1.503420	0.218100	-2.245940	1.255030	0.220430	-2.068470	1.400990	0.229790	-2.037390	1.248950	0.229400	-2.140440	1.465440	0.044350	-2.140270	1.148900	-0.029090	-2.050980	0.911280	0.019880	-2.101220	0.903010	-0.024390	-2.053970	0.834860	-0.024500	-2.155910	1.473000	0.396560	-2.177400	1.156550	0.500830	-2.062970	0.933790	0.466710	-2.103940	0.926430	0.510890	-2.064470	0.864760	0.508900	-2.054960	0.980190	0.108870	-2.069440	0.981740	0.375760	-2.216880	1.088540	0.180820	-2.219320	1.088370	0.267290	-2.131810	0.681640	0.062500	-2.168150	0.494860	0.082540	-2.198680	0.296260	0.067440	-2.187900	0.089430	0.109470	-2.233900	0.107290	0.147070	-2.038710	0.051600	0.166090	-2.150040	0.684180	0.403230	-2.165250	0.494390	0.385030	-2.185230	0.317830	0.397740	-2.184660	0.088720	0.350610	-2.229140	0.096670	0.301330	-2.026010	0.051390	0.318710	-2.087130	0.057010	0.397610	-2.082890	0.041480	0.080420	-2.163960	0.491640	0.282480	-2.183810	0.484670	0.185370	
136	1.3500	-2.209790	1.503520	0.217650	-2.245510	1.255160	0.220080	-2.067910	1.400950	0.229270	-2.036960	1.248880	0.228910	-2.139930	1.465420	0.043860	-2.140050	1.148860	-0.029470	-2.050900	0.911190	0.019560	-2.101180	0.902940	-0.024670	-2.053950	0.834760	-0.024790	-2.155150	1.473100	0.396080	-2.176630	1.156680	0.500460	-2.062140	0.934000	0.466270	-2.103200	0.926560	0.510480	-2.063720	0.864880	0.508460	-2.054820	0.980210	0.108390	-2.069160	0.981710	0.375270	-2.216640	1.088650	0.180460	-2.219040	1.088470	0.266930	-2.131700	0.681640	0.062200	-2.167930	0.494850	0.082330	-2.198560	0.296250	0.067340	-2.187890	0.089430	0.109450	-2.233890	0.107300	0.147050	-2.038720	0.051610	0.166080	-2.149790	0.684220	0.402930	-2.165020	0.494420	0.384840	-2.185080	0.317880	0.397650	-2.184640	0.088740	0.350620	-2.229160	0.096680	0.301350	-2.026030	0.051400	0.318710	-2.087080	0.057040	0.397570	-2.082890	0.041480	0.080420	-2.163770	0.491620	0.282290	-2.183560	0.484710	0.185190	
137	1.3600	-2.209110	1.503610	0.217190	-2.245060	1.255290	0.219710	-2.067320	1.400910	0.228720	-2.036510	1.248800	0.228380	-2.139400	1.465400	0.043350	-2.139810	1.148810	-0.029860	-2.050800	0.911090	0.019200	-2.101130	0.902880	-0.024970	-2.053930	0.834650	-0.025110	-2.154370	1.473200	0.395580	-2.175830	1.156820	0.500070	-2.061300	0.934190	0.465810	-2.102450	0.926690	0.510040	-2.062960	0.865000	0.508010	-2.054680	0.980220	0.107890	-2.068880	0.981690	0.374760	-2.216370	1.088770	0.180080	-2.218740	1.088560	0.266550	-2.131570	0.681640	0.061880	-2.167700	0.494830	0.082120	-2.198440	0.296230	0.067230	-2.187870	0.089430	0.109440	-2.233880	0.107310	0.147040	-2.038720	0.051620	0.166060	-2.149530	0.684270	0.402620	-2.164790	0.494450	0.384630	-2.184930	0.317920	0.397530	-2.184620	0.088760	0.350630	-2.229180	0.096680	0.301370	-2.026050	0.051410	0.318720	-2.087040	0.057070	0.397530	-2.082900	0.041480	0.080410	-2.163560	0.491600	0.282080	-2.183310	0.484760	0.185000	
138	1.3700	-2.208400	1.503700	0.216700	-2.244590	1.255420	0.219320	-2.066710	1.400860	0.228140	-2.036050	1.248710	0.227830	-2.138850	1.465370	0.042810	-2.139560	1.148750	-0.030290	-2.050690	0.910990	0.018830	-2.101070	0.902800	-0.025310	-2.053890	0.834540	-0.025440	-2.153550	1.473300	0.395060	-2.175020	1.156960	0.499660	-2.060470	0.934350	0.465320	-2.101670	0.926810	0.509590	-2.062170	0.865120	0.507530	-2.054520	0.980230	0.107360	-2.068610	0.981670	0.374230	-2.216080	1.088880	0.179680	-2.218420	1.088650	0.266140	-2.131430	0.681630	0.061550	-2.167480	0.494810	0.081890	-2.198320	0.296210	0.067120	-2.187860	0.089430	0.109430	-2.233860	0.107310	0.147020	-2.038730	0.051630	0.166050	-2.149270	0.684310	0.402300	-2.164550	0.494480	0.384400	-2.184790	0.317970	0.397390	-2.184610	0.088780	0.350620	-2.229200	0.096680	0.301370	-2.026060	0.051420	0.318720	-2.087000	0.057110	0.397490	-2.082900	0.041480	0.080410	-2.163320	0.491570	0.281850	-2.183060	0.484790	0.184790	
139	1.3800	-2.207660	1.503800	0.216190	-2.244100	1.255560	0.218900	-2.066060	1.400810	0.227540	-2.035560	1.248630	0.227260	-2.138280	1.465350	0.042250	-2.139300	1.148700	-0.030730	-2.050570	0.910890	0.018430	-2.100990	0.902730	-0.025680	-2.053850	0.834430	-0.025800	-2.152690	1.473400	0.394510	-2.174170	1.157100	0.499230	-2.059640	0.934490	0.464810	-2.100880	0.926940	0.509110	-2.061360	0.865230	0.507040	-2.054350	0.980220	0.106810	-2.068360	0.981640	0.373660	-2.215760	1.088990	0.179250	-2.218080	1.088750	0.265710	-2.131280	0.681620	0.061200	-2.167260	0.494780	0.081660	-2.198180	0.296180	0.066990	-2.187830	0.089430	0.109410	-2.233840	0.107320	0.146990	-2.038740	0.051650	0.166030	-2.149000	0.684340	0.401950	-2.164300	0.494510	0.384150	-2.184650	0.318020	0.397240	-2.184600	0.088790	0.350620	-2.229220	0.096680	0.301370	-2.026080	0.051420	0.318720	-2.086980	0.057150	0.397470	-2.082900	0.041480	0.080410	-2.163060	0.491540	0.281600	-2.182820	0.484820	0.184560	
140	1.3900	-2.206900	1.503890	0.215650	-2.243590	1.255700	0.218470	-2.065390	1.400760	0.226900	-2.035040	1.248540	0.226650	-2.137680	1.465320	0.041660	-2.139010	1.148630	-0.031200	-2.050420	0.910790	0.018000	-2.100890	0.902650	-0.026080	-2.053800	0.834310	-0.026190	-2.151810	1.473500	0.393930	-2.173300	1.157240	0.498770	-2.058840	0.934600	0.464260	-2.100060	0.927050	0.508610	-2.060540	0.865340	0.506530	-2.054160	0.980210	0.106250	-2.068140	0.981610	0.373060	-2.215420	1.089110	0.178800	-2.217720	1.088830	0.265270	-2.131110	0.681590	0.060840	-2.167040	0.494750	0.081410	-2.198050	0.296150	0.066860	-2.187810	0.089420	0.109390	-2.233810	0.107320	0.146970	-2.038750	0.051660	0.166010	-2.148710	0.684380	0.401580	-2.164050	0.494530	0.383880	-2.184520	0.318070	0.397070	-2.184600	0.088810	0.350600	-2.229230	0.096660	0.301360	-2.026090	0.051430	0.318720	-2.086960	0.057190	0.397450	-2.082910	0.041490	0.080400	-2.162790	0.491510	0.281330	-2.182570	0.484850	0.184320	
141	1.4000	-2.206100	1.503970	0.215090	-2.243060	1.255840	0.218010	-2.064690	1.400710	0.226240	-2.034490	1.248450	0.226020	-2.137060	1.465280	0.041050	-2.138720	1.148570	-0.031690	-2.050260	0.910690	0.017550	-2.100770	0.902570	-0.026510	-2.053720	0.834190	-0.026600	-2.150880	1.473600	0.393320	-2.172410	1.157380	0.498290	-2.058100	0.934670	0.463680	-2.099230	0.927160	0.508100	-2.059710	0.865440	0.505990	-2.053970	0.980180	0.105660	-2.067930	0.981580	0.372420	-2.215050	1.089210	0.178330	-2.217350	1.088910	0.264790	-2.130930	0.681560	0.060460	-2.166810	0.494720	0.081150	-2.197900	0.296120	0.066710	-2.187770	0.089410	0.109370	-2.233780	0.107310	0.146940	-2.038760	0.051670	0.165990	-2.148410	0.684410	0.401190	-2.163790	0.494560	0.383600	-2.184380	0.318120	0.396900	-2.184600	0.088820	0.350590	-2.229250	0.096640	0.301340	-2.026100	0.051430	0.318710	-2.086960	0.057230	0.397440	-2.082910	0.041490	0.080400	-2.162500	0.491470	0.281050	-2.182310	0.484870	0.184060	
142	1.4100	-2.205280	1.504060	0.214510	-2.242510	1.255980	0.217520	-2.063950	1.400660	0.225550	-2.033930	1.248360	0.225350	-2.136410	1.465240	0.040410	-2.138400	1.148500	-0.032210	-2.050080	0.910580	0.017060	-2.100640	0.902490	-0.026960	-2.053630	0.834060	-0.027050	-2.149920	1.473690	0.392680	-2.171490	1.157510	0.497790	-2.057470	0.934700	0.463060	-2.098380	0.927270	0.507560	-2.058870	0.865540	0.505440	-2.053750	0.980150	0.105060	-2.067690	0.981550	0.371750	-2.214670	1.089310	0.177830	-2.216950	1.088990	0.264290	-2.130730	0.681530	0.060060	-2.166580	0.494690	0.080870	-2.197740	0.296080	0.066560	-2.187730	0.089400	0.109350	-2.233750	0.107300	0.146920	-2.038770	0.051690	0.165970	-2.148100	0.684450	0.400790	-2.163520	0.494600	0.383300	-2.184240	0.318180	0.396720	-2.184610	0.088830	0.350570	-2.229260	0.096620	0.301320	-2.026110	0.051430	0.318710	-2.086970	0.057280	0.397440	-2.082910	0.041490	0.080400	-2.162210	0.491430	0.280760	-2.182060	0.484900	0.183790	
143	1.4200	-2.204420	1.504150	0.213900	-2.241930	1.256110	0.217000	-2.063190	1.400600	0.224830	-2.033340	1.248250	0.224650	-2.135730	1.465200	0.039740	-2.138080	1.148430	-0.032770	-2.049880	0.910480	0.016550	-2.100480	0.902410	-0.027440	-2.053530	0.833940	-0.027530	-2.148920	1.473770	0.392020	-2.170540	1.157650	0.497250	-2.056980	0.934680	0.462390	-2.097510	0.927370	0.507010	-2.058010	0.865640	0.504860	-2.053500	0.980110	0.104430	-2.067380	0.981530	0.371060	-2.214280	1.089390	0.177310	-2.216530	1.089050	0.263770	-2.130520	0.681500	0.059640	-2.166340	0.494660	0.080570	-2.197570	0.296040	0.066400	-2.187690	0.089380	0.109330	-2.233710	0.107290	0.146890	-2.038780	0.051700	0.165950	-2.147780	0.684490	0.400370	-2.163230	0.494630	0.382990	-2.184080	0.318240	0.396530	-2.184630	0.088840	0.350550	-2.229270	0.096600	0.301300	-2.026120	0.051430	0.318700	-2.086980	0.057320	0.397440	-2.082920	0.041490	0.080400	-2.161920	0.491390	0.280450	-2.181810	0.484920	0.183500	
144	1.4300	-2.203530	1.504230	0.213250	-2.241320	1.256240	0.216460	-2.062400	1.400530	0.224080	-2.032740	1.248140	0.223920	-2.135030	1.465140	0.039040	-2.137730	1.148360	-0.033350	-2.049670	0.910370	0.016000	-2.100310	0.902320	-0.027940	-2.053410	0.833810	-0.028040	-2.147890	1.473860	0.391320	-2.169570	1.157790	0.496700	-2.056700	0.934590	0.461660	-2.096630	0.927470	0.506430	-2.057150	0.865720	0.504260	-2.053220	0.980070	0.103790	-2.067000	0.981540	0.370360	-2.213870	1.089460	0.176760	-2.216080	1.089120	0.263220	-2.130300	0.681460	0.059200	-2.166100	0.494620	0.080260	-2.197390	0.295990	0.066240	-2.187640	0.089360	0.109300	-2.233660	0.107270	0.146850	-2.038800	0.051710	0.165930	-2.147450	0.684530	0.399930	-2.162930	0.494670	0.382670	-2.183920	0.318300	0.396340	-2.184640	0.088850	0.350530	-2.229280	0.096570	0.301270	-2.026130	0.051430	0.318700	-2.086990	0.057370	0.397440	-2.082920	0.041490	0.080400	-2.161610	0.491350	0.280140	-2.181560	0.484960	0.183200	
145	1.4400	-2.202610	1.504310	0.212580	-2.240690	1.256370	0.215890	-2.061570	1.400450	0.223300	-2.032120	1.248020	0.223160	-2.134300	1.465080	0.038320	-2.137370	1.148290	-0.033970	-2.049440	0.910250	0.015420	-2.100110	0.902230	-0.028470	-2.053270	0.833670	-0.028580	-2.146820	1.473930	0.390600	-2.168580	1.157920	0.496120	-2.056650	0.934430	0.460860	-2.095740	0.927570	0.505830	-2.056270	0.865800	0.503640	-2.052910	0.980040	0.103110	-2.066520	0.981560	0.369660	-2.213450	1.089510	0.176180	-2.215620	1.089170	0.262640	-2.130060	0.681420	0.058740	-2.165830	0.494580	0.079920	-2.197200	0.295940	0.066060	-2.187590	0.089330	0.109280	-2.233620	0.107260	0.146820	-2.038810	0.051730	0.165910	-2.147100	0.684580	0.399480	-2.162610	0.494710	0.382330	-2.183740	0.318370	0.396140	-2.184660	0.088860	0.350510	-2.229300	0.096540	0.301250	-2.026130	0.051430	0.318690	-2.087000	0.057420	0.397440	-2.082930	0.041490	0.080400	-2.161280	0.491310	0.279810	-2.181310	0.484990	0.182880	
